0
SECTION
2
HEADER
9
$INSUNITS
70
4
9
$ACADVER
1
AC1014
9
$HANDSEED
5
FFFF
0
ENDSEC
0
SECTION
2
TABLES
0
TABLE
2
VPORT
5
8
100
AcDbSymbolTable
0
ENDTAB
0
TABLE
2
LTYPE
5
5
100
AcDbSymbolTable
0
LTYPE
5
14
100
AcDbSymbolTableRecord
100
AcDbLinetypeTableRecord
2
BYBLOCK
70
0
0
LTYPE
5
15
100
AcDbSymbolTableRecord
100
AcDbLinetypeTableRecord
2
BYLAYER
70
0
0
ENDTAB
0
TABLE
2
LAYER
5
2
100
AcDbSymbolTable
70
2
0
LAYER
5
50
100
AcDbSymbolTableRecord
100
AcDbLayerTableRecord
2
0
70
0
6
CONTINUOUS
0
ENDTAB
0
TABLE
2
STYLE
5
3
100
AcDbSymbolTable
70
1
0
STYLE
5
11
100
AcDbSymbolTableRecord
100
AcDbTextStyleTableRecord
2
STANDARD
70
0
0
ENDTAB
0
TABLE
2
VIEW
5
6
100
AcDbSymbolTable
70
0
0
ENDTAB
0
TABLE
2
UCS
5
7
100
AcDbSymbolTable
70
0
0
ENDTAB
0
TABLE
2
APPID
5
9
100
AcDbSymbolTable
70
2
0
APPID
5
12
100
AcDbSymbolTableRecord
100
AcDbRegAppTableRecord
2
ACAD
70
0
0
ENDTAB
0
TABLE
2
DIMSTYLE
5
A
100
AcDbSymbolTable
70
1
0
ENDTAB
0
TABLE
2
BLOCK_RECORD
5
1
100
AcDbSymbolTable
70
1
0
BLOCK_RECORD
5
1F
100
AcDbSymbolTableRecord
100
AcDbBlockTableRecord
2
*MODEL_SPACE
0
BLOCK_RECORD
5
1B
100
AcDbSymbolTableRecord
100
AcDbBlockTableRecord
2
*PAPER_SPACE
0
ENDTAB
0
ENDSEC
0
SECTION
2
BLOCKS
0
BLOCK
5
20
100
AcDbEntity
100
AcDbBlockBegin
2
*MODEL_SPACE
0
ENDBLK
5
21
100
AcDbEntity
100
AcDbBlockEnd
0
BLOCK
5
1C
100
AcDbEntity
100
AcDbBlockBegin
2
*PAPER_SPACE
0
ENDBLK
5
1D
100
AcDbEntity
100
AcDbBlockEnd
0
ENDSEC
0
SECTION
2
ENTITIES
0
LWPOLYLINE
5
100
100
AcDbEntity
8
0
100
AcDbPolyline
90
4
70
1
43
0.0
10
-117.00000000000003
20
20
10
-292
20
20
10
-292
20
24
10
-117.00000000000003
20
24
0
LINE
5
101
100
AcDbEntity
8
0
100
AcDbLine
10
-292
20
24
30
0
11
-232.00000000000006
21
24
31
0
0
LINE
5
102
100
AcDbEntity
8
0
100
AcDbLine
10
-200.13035972136183
20
237.25895885252066
30
0
11
-89.892715394511256
21
237.25895885252066
31
0
0
LINE
5
103
100
AcDbEntity
8
0
100
AcDbLine
10
-276.53390255216317
20
24
30
0
11
-274.17849026256226
21
37.358206895717515
31
0
0
LINE
5
104
100
AcDbEntity
8
0
100
AcDbLine
10
-276.53390255216317
20
24
30
0
11
-236.37225381663114
21
24
31
0
0
LINE
5
105
100
AcDbEntity
8
0
100
AcDbLine
10
-274.17849026256226
20
37.358206895717515
30
0
11
-228.15534769788613
21
210.60587826344147
31
0
0
ARC
5
106
100
AcDbEntity
8
0
100
AcDbCircle
10
-192.44719981161205
20
201.1200296634776
30
0
40
36.946625679883873
100
AcDbArc
50
102.0024169702518
51
165.12301132001204
0
LWPOLYLINE
5
107
100
AcDbEntity
8
0
100
AcDbPolyline
90
12
70
1
43
0.0
10
-218.49055497888122
20
208.03843173066417
10
-249.0977795159921
20
92.821823681099261
42
-0.1874009761392105
10
-223.4229559622292
20
52.529939828871719
10
-182.34143143430316
20
52.529939828871719
10
-175.4354094155442
20
78.67920419289041
10
-105.03760780126862
20
78.67920419289041
42
0.40621905759923493
10
-63.798003625152681
20
132.86267058029452
10
-74.786727937174064
20
195.18282299185279
10
-79.3872848452922
20
221.27387774498001
42
0.37022864285088058
10
-86.684907856134018
20
227.26139211702923
10
-89.892715394511256
20
227.25895885252066
10
-198.99525420829889
20
227.25895885252069
42
0.27290922864680961
0
LINE
5
108
100
AcDbEntity
8
0
100
AcDbLine
10
-196.0374282905336
20
24
30
0
11
5
21
24
31
0
0
LINE
5
109
100
AcDbEntity
8
0
100
AcDbLine
10
-266.68582502204106
20
22.263518223330692
30
0
11
-266.37963643330573
21
24
31
0
0
LINE
5
110
100
AcDbEntity
8
0
100
AcDbLine
10
-196.0374282905336
20
24
30
0
11
-276.53390255216317
21
24
31
0
0
LINE
5
111
100
AcDbEntity
8
0
100
AcDbLine
10
-225.38550159975858
20
47.799957372143382
30
0
11
-225.38622825463369
21
47.813604860689843
31
0
0
LINE
5
112
100
AcDbEntity
8
0
100
AcDbLine
10
15
20
81.850694592590969
30
0
11
15.214561773712365
21
77.627373604225937
31
0
0
LINE
5
113
100
AcDbEntity
8
0
100
AcDbLine
10
-52.390759143111694
20
125.75667716879798
30
0
11
-69.539207315170103
21
223.01035952164926
31
0
0
LINE
5
114
100
AcDbEntity
8
0
100
AcDbLine
10
-89.892715394511256
20
237.25895885252066
30
0
11
-86.905496544409203
21
237.25895885252066
31
0
0
ARC
5
115
100
AcDbEntity
8
0
100
AcDbCircle
10
-86.525028379292621
20
220.01530097855834
30
0
40
17.247854733239436
100
AcDbArc
50
9.9999999999998295
51
91.263982606446376
0
LINE
5
116
100
AcDbEntity
8
0
100
AcDbLine
10
-52.390759143111694
20
125.75667716879798
30
0
11
2.3299814441134359
21
126.00122987611871
31
0
0
ARC
5
117
100
AcDbEntity
8
0
100
AcDbCircle
10
-104.95634441616644
20
71.522205928892689
30
0
40
120.32588984437467
100
AcDbArc
50
2.9083566605868119
51
26.921047415599364
0
LINE
5
118
100
AcDbEntity
8
0
100
AcDbLine
10
15
20
81.850694592590969
30
0
11
15
21
24.000000000000004
31
0
0
LINE
5
119
100
AcDbEntity
8
0
100
AcDbLine
10
15
20
24.000000000000004
30
0
11
5
21
24
31
0
0
ENDSEC
0
SECTION
2
OBJECTS
0
DICTIONARY
5
C
100
AcDbDictionary
3
ACAD_GROUP
350
D
3
ACAD_MLINESTYLE
350
17
0
DICTIONARY
5
D
100
AcDbDictionary
0
DICTIONARY
5
1A
330
C
100
AcDbDictionary
0
DICTIONARY
5
17
100
AcDbDictionary
0
ENDSEC
0
EOF
